<svg width="80" height="35" viewBox="0 0 80 35" fill="none" xmlns="http://www.w3.org/2000/svg">
<path fill-rule="evenodd" clip-rule="evenodd" d="M50.5581 15.4993C54.2838 18.434 60.8269 25.1253 54.8401 29.28C51.0303 31.9232 44.4279 32.113 40.9357 28.7746C36.5591 24.5904 40.1779 18.8337 43.7782 15.6426C44.8143 14.7236 45.9302 13.886 47.0974 13.1088C48.2947 13.8396 49.455 14.6304 50.5581 15.4993ZM79.3203 1.24179C68.6059 1.33829 57.0457 3.95133 47.5999 9.47483C45.4291 8.30042 43.2839 7.35218 41.433 6.65245C30.68 2.58847 17.3127 1.6409 6.13235 4.46144C4.91066 4.77008 4.80203 6.29153 5.50156 7.05518C5.06384 6.67678 4.63067 6.29288 4.20205 5.90347C5.26233 4.82676 6.45768 3.95074 7.85647 3.23684C8.71138 2.80088 9.74345 2.58395 10.5499 2.09019C11.0303 1.79622 10.9372 1.40557 11.5043 1.15649C11.6852 1.07707 11.7242 0.787983 11.4927 0.73851C10.8587 0.603531 10.5682 0.139314 9.92846 0.0309127C8.92069 -0.140278 7.23886 0.440356 6.3289 0.785312C4.06264 1.6444 2.10704 3.08716 0.455888 4.84161C-0.233506 5.57461 -0.0907408 6.62837 0.547325 7.32778C2.11128 9.04263 3.91873 10.5357 5.79738 11.892C7.42531 13.0667 9.19877 14.5066 11.1996 14.8872C12.7683 15.1865 13.76 13.3385 12.6431 12.1952C11.2803 10.7997 9.32997 10.0058 7.74808 8.85792C7.0698 8.36586 6.42613 7.83991 5.79326 7.30172C6.02039 7.43945 6.29549 7.51441 6.61686 7.49124C16.9998 6.74214 26.8475 5.751 37.042 8.72527C39.5462 9.45481 41.9984 10.4029 44.335 11.5762C44.1391 11.7133 43.9354 11.843 43.7404 11.9833C37.3407 16.6076 31.5666 26.6908 40.3063 32.3467C46.5089 36.3621 60.2739 34.7069 60.5346 25.4141C60.7014 19.4767 55.8495 14.5998 50.4065 11.1265C53.3825 9.51723 56.5439 8.19555 59.5743 6.9679C65.8912 4.40774 72.6068 2.74132 79.3305 1.6754C79.597 1.6329 79.6085 1.23898 79.3203 1.24179Z" fill="black"/>
</svg>
