<svg width="85" height="85" viewBox="0 0 85 85" fill="none" xmlns="http://www.w3.org/2000/svg">
<rect width="85" height="85" rx="23" fill="white"/>
<g clip-path="url(#paint0_diamond_738_14_clip_path)" data-figma-skip-parse="true"><g transform="matrix(0.458744 0.226468 -0.0533498 0.183627 -115.744 -30.4683)"><rect x="0" y="0" width="449.12" height="333.994" fill="url(#paint0_diamond_738_14)" opacity="1" shape-rendering="crispEdges"/><rect x="0" y="0" width="449.12" height="333.994" transform="scale(1 -1)" fill="url(#paint0_diamond_738_14)" opacity="1" shape-rendering="crispEdges"/><rect x="0" y="0" width="449.12" height="333.994" transform="scale(-1 1)" fill="url(#paint0_diamond_738_14)" opacity="1" shape-rendering="crispEdges"/><rect x="0" y="0" width="449.12" height="333.994" transform="scale(-1)" fill="url(#paint0_diamond_738_14)" opacity="1" shape-rendering="crispEdges"/></g></g><rect width="85" height="85" rx="23" data-figma-gradient-fill="{&#34;type&#34;:&#34;GRADIENT_DIAMOND&#34;,&#34;stops&#34;:[{&#34;color&#34;:{&#34;r&#34;:0.094836376607418060,&#34;g&#34;:0.017104290425777435,&#34;b&#34;:0.096153847873210907,&#34;a&#34;:1.0},&#34;position&#34;:0.34999999403953552},{&#34;color&#34;:{&#34;r&#34;:0.0,&#34;g&#34;:0.0,&#34;b&#34;:0.0,&#34;a&#34;:1.0},&#34;position&#34;:0.64774298667907715}],&#34;stopsVar&#34;:[{&#34;color&#34;:{&#34;r&#34;:0.094836376607418060,&#34;g&#34;:0.017104290425777435,&#34;b&#34;:0.096153847873210907,&#34;a&#34;:1.0},&#34;position&#34;:0.34999999403953552},{&#34;color&#34;:{&#34;r&#34;:0.0,&#34;g&#34;:0.0,&#34;b&#34;:0.0,&#34;a&#34;:1.0},&#34;position&#34;:0.64774298667907715}],&#34;transform&#34;:{&#34;m00&#34;:917.48730468750,&#34;m01&#34;:-106.69950103759766,&#34;m02&#34;:-521.13751220703125,&#34;m10&#34;:452.93652343750,&#34;m11&#34;:367.25360107421875,&#34;m12&#34;:-440.56332397460938},&#34;opacity&#34;:1.0,&#34;blendMode&#34;:&#34;NORMAL&#34;,&#34;visible&#34;:true}"/>
<path d="M57.9999 32.205C58.0077 34.3728 57.4288 36.5019 56.3252 38.3703C55.7954 39.271 55.1519 40.0994 54.4128 40.8426C52.1256 43.1472 49.0062 44.4401 45.7576 44.4323H45.6672V44.471H34.4328C33.0967 44.4607 32.0035 45.5317 31.9905 46.8685V46.9072C31.9905 47.2375 32.0526 47.5653 32.1792 47.8698C32.4195 48.4608 32.8873 48.9305 33.4766 49.1756C33.7789 49.3021 34.1046 49.3666 34.4302 49.3615H39.3328C40.3149 49.3563 41.2892 49.5498 42.1937 49.9318C43.9589 50.6724 45.3622 52.0738 46.1039 53.8364C46.8663 55.6609 46.8663 57.7151 46.1039 59.5397C45.7344 60.4094 45.202 61.1991 44.5326 61.8675C43.8607 62.5359 43.0673 63.0701 42.1937 63.4443C41.2892 63.834 40.3149 64.0301 39.3328 64.0249H28.4551V59.1319H39.3328C40.6819 59.1319 41.7751 58.0429 41.7751 56.6958C41.7751 55.3487 40.6845 54.257 39.3354 54.2544H34.4302C33.4507 54.2622 32.479 54.0635 31.5796 53.6764C29.8222 52.9228 28.4215 51.5215 27.6694 49.7615C27.2792 48.8608 27.0828 47.8879 27.0879 46.9046C27.0802 45.9266 27.2792 44.9562 27.6694 44.0581C28.4241 42.3058 29.8248 40.9071 31.5796 40.1536C32.4816 39.7639 33.4507 39.5677 34.4328 39.5729H44.9875L45.7576 39.5316C46.7397 39.5393 47.714 39.3432 48.6186 38.9613C50.3837 38.2232 51.787 36.8193 52.5288 35.0567C52.9112 34.1534 53.1051 33.1831 53.0999 32.2024C53.1051 31.2244 52.9112 30.254 52.5288 29.3559C52.1592 28.4863 51.6242 27.6966 50.9574 27.0282C50.2855 26.3572 49.4921 25.823 48.6186 25.4488C47.7166 25.0591 46.7423 24.863 45.7576 24.8707H43.3154V38.3651H38.3792V19.9751H45.755C46.856 19.97 47.9492 20.1171 49.0088 20.4087C51.0557 20.9739 52.9164 22.0603 54.4128 23.5623C55.1519 24.3055 55.7929 25.1365 56.3227 26.0346C57.4262 27.903 58.0025 30.0321 57.9974 32.1999L57.9999 32.205Z" fill="white"/>
<path d="M56.4543 60.9338C56.4569 61.3475 56.3753 61.7586 56.2097 62.1389C56.0517 62.5038 55.8274 62.8353 55.5445 63.1154C55.2591 63.3955 54.9253 63.619 54.5583 63.7783C53.7887 64.1072 52.9197 64.1072 52.1501 63.7783C51.4161 63.4648 50.83 62.879 50.5166 62.1389C50.1904 61.3706 50.1904 60.5047 50.5166 59.7364C50.8275 58.9937 51.4136 58.4027 52.1501 58.0892C52.9197 57.7603 53.7887 57.7603 54.5583 58.0892C54.9253 58.246 55.2591 58.4721 55.5445 58.7522C55.8274 59.0349 56.0542 59.3689 56.2097 59.7364C56.3728 60.1141 56.4543 60.5227 56.4543 60.9338Z" fill="#CB4A68"/>
<defs>
<clipPath id="paint0_diamond_738_14_clip_path"><rect width="85" height="85" rx="23"/></clipPath><linearGradient id="paint0_diamond_738_14" x1="0" y1="0" x2="500" y2="500" gradientUnits="userSpaceOnUse">
<stop offset="0.35" stop-color="#180419"/>
<stop offset="0.647743"/>
</linearGradient>
</defs>
</svg>
