<svg width="36" height="50" viewBox="0 0 36 50" fill="none" xmlns="http://www.w3.org/2000/svg">
<path d="M35.0876 13.882C35.0964 16.3426 34.4393 18.7592 33.1867 20.88C32.5854 21.9023 31.8549 22.8426 31.016 23.6862C28.4198 26.3021 24.8791 27.7696 21.1917 27.7609H21.0891V27.8048H8.33721C6.82059 27.7931 5.57973 29.0087 5.56506 30.5261V30.57C5.56506 30.945 5.63547 31.317 5.77921 31.6626C6.05202 32.3335 6.58298 32.8666 7.25182 33.1449C7.59503 33.2884 7.96465 33.3616 8.33427 33.3558H13.8991C15.0138 33.3499 16.1197 33.5696 17.1465 34.0031C19.15 34.8438 20.7429 36.4344 21.5848 38.4351C22.4502 40.5061 22.4502 42.8378 21.5848 44.9088C21.1653 45.896 20.561 46.7923 19.8013 47.551C19.0386 48.3097 18.138 48.9161 17.1465 49.3408C16.1197 49.7831 15.0138 50.0057 13.8991 49.9999H1.55206V44.446H13.8991C15.4304 44.446 16.6712 43.2098 16.6712 41.6808C16.6712 40.1517 15.4333 38.9126 13.902 38.9097H8.33427C7.22248 38.9185 6.11949 38.6929 5.09864 38.2535C3.10387 37.3982 1.51392 35.8076 0.660281 33.8098C0.217325 32.7875 -0.00561934 31.6832 0.000247629 30.5671C-0.00855282 29.4569 0.217325 28.3555 0.660281 27.3361C1.51686 25.3471 3.1068 23.7595 5.09864 22.9041C6.12242 22.4618 7.22248 22.2392 8.33721 22.245H20.3175L21.1917 22.1982C22.3064 22.207 23.4124 21.9843 24.4391 21.5508C26.4427 20.713 28.0355 19.1195 28.8774 17.1188C29.3116 16.0936 29.5316 14.9922 29.5257 13.879C29.5316 12.7688 29.3116 11.6674 28.8774 10.648C28.458 9.66088 27.8507 8.76453 27.0939 8.00585C26.3312 7.24424 25.4306 6.63788 24.4391 6.21313C23.4153 5.77081 22.3094 5.54819 21.1917 5.55698H18.4196V20.8741H12.8166V0.000148989H21.1888C22.4385 -0.00570955 23.6793 0.161259 24.882 0.492267C27.2054 1.13378 29.3175 2.367 31.016 4.07184C31.8549 4.91547 32.5824 5.85869 33.1838 6.87808C34.4364 8.99887 35.0906 11.4155 35.0847 13.8761L35.0876 13.882Z" fill="white"/>
<path d="M33.3333 46.4912C33.3362 46.9608 33.2436 47.4275 33.0556 47.8592C32.8762 48.2733 32.6217 48.6496 32.3006 48.9675C31.9766 49.2854 31.5977 49.5392 31.1812 49.72C30.3076 50.0933 29.3212 50.0933 28.4477 49.72C27.6146 49.3642 26.9493 48.6992 26.5935 47.8592C26.2232 46.9871 26.2232 46.0041 26.5935 45.1321C26.9464 44.2891 27.6117 43.6183 28.4477 43.2625C29.3212 42.8891 30.3076 42.8891 31.1812 43.2625C31.5977 43.4404 31.9766 43.697 32.3006 44.015C32.6217 44.3358 32.8791 44.715 33.0556 45.1321C33.2407 45.5608 33.3333 46.0246 33.3333 46.4912Z" fill="#CB4A68"/>
</svg>
