<svg width="186" height="201" viewBox="0 0 186 201" fill="none" xmlns="http://www.w3.org/2000/svg">
<path d="M25.1054 116.915C26.6096 116.469 32.9076 110.809 39.7358 100.965C44.66 93.8662 47.1438 88.2755 47.3115 74.2687C47.4446 63.1493 39.7766 57.6457 36.5234 55.079C33.8722 52.9872 29.0518 55.2186 23.7891 57.1571C15.4223 60.2391 9.56423 65.2649 6.32689 69.2996C1.85503 74.873 0.638322 83.1015 1.08689 89.4035C1.25251 91.7305 2.43257 92.1391 3.64233 92.3688C8.88315 93.3637 12.8537 95.1381 24.0746 96.1964C34.3512 97.1655 38.9791 103.685 42.8372 106.398C45.0538 107.957 45.9477 113.272 45.7982 120.094C45.7035 124.412 43.9948 127.407 41.8857 130.179C38.4267 134.724 33.7323 134.927 28.9046 137.543C27.2463 138.442 24.5526 138.079 23.2431 137.633C21.9337 137.188 21.9337 136.296 22.3822 135.614C25.2663 131.228 32.1736 125.939 35.667 121.884C39.2181 117.762 44.8693 116.176 49.1035 111.083C53.5988 105.676 55.7436 101.163 57.9502 97.5675C60.1967 93.9066 59.9936 89.7615 59.545 87.9557C58.5511 83.9546 52.4723 96.9214 51.156 103.239C50.5431 106.181 55.6077 98.4569 57.2615 98.2272C63.318 97.3861 66.9305 102.199 68.5163 102.654C71.5587 103.526 72.508 94.5797 74.5583 89.4666C77.5908 81.9038 81.289 81.2012 81.5133 80.0709C82.5657 74.7675 83.2464 93.0442 84.3768 94.0169C84.9449 94.5056 85.3578 95.1381 85.8131 94.7014C89.4064 91.2546 91.2481 85.5736 92.0093 79.4855C92.3014 77.1487 93.074 74.9014 92.1701 72.3527C91.7837 71.2633 91.2662 70.6956 90.5118 71.3553C84.7235 76.4169 88.0809 85.0783 88.7606 96.6174C89.3518 106.656 88.9917 125.246 88.5431 138.827C88.0945 152.408 87.1974 160.432 86.2119 166.275C83.614 181.677 82.2043 190.873 80.2378 196.299C79.716 197.739 79.9297 199.879 78.6588 199.985C74.4412 200.336 70.7319 194.237 68.0179 190.27C65.4031 186.447 60.3425 177.472 53.0953 165.559C47.9584 157.115 49.5725 147.581 51.5162 137.037C52.6741 130.756 57.3475 123.372 62.8639 117.462C73.767 105.781 85.6387 102.96 91.7397 101.764C98.1215 100.514 102.72 98.9027 104.986 98.1597C110 96.5152 102.14 87.8162 99.9497 84.2047C99.4701 83.4141 98.9688 82.8538 98.4387 82.7705C97.9085 82.6872 97.3104 83.133 97.2266 83.8085C97.1428 84.4839 97.5913 85.3755 98.3457 85.6862C99.1001 85.9969 100.147 85.6997 101.434 84.2835C107.312 77.8137 106.653 72.803 106.667 67.996C106.669 67.233 105.321 67.8226 104.859 69.5383C103.633 74.0882 104.845 78.3282 106.048 80.1272C107.25 81.9241 109.825 81.7911 111.707 81.3453C114.078 80.7839 115.865 77.1575 117.974 72.9673C120.325 68.2958 123.554 57.1098 127.178 41.9728C129.82 30.9412 127.663 21.941 125.708 14.5988C122.983 4.36425 119.353 2.84354 118.375 1.72002C117.883 1.1555 117.247 0.745107 116.714 1.18415C115.145 2.47815 115.271 10.877 115.944 24.0529C116.284 30.7155 117.962 37.2289 118.506 55.16C119.05 73.0912 118.751 102.217 118.298 119.227C117.845 136.238 117.247 140.25 116.938 144.323C115.825 159.046 115.271 165.683 114.748 168.38C114.497 169.675 113.178 170.483 112.115 170.943C107.403 172.98 98.8509 164.99 90.7587 157.102C85.0584 151.547 82.9655 141.132 80.6253 131.991C78.8564 125.082 81.1214 117.856 84.8096 109.771C86.7004 105.626 89.2454 101.686 101.393 94.5662C113.54 87.4469 135.37 77.3421 149.607 70.1304C163.843 62.9188 169.824 58.9066 174.176 55.3536C181.532 49.3481 184.137 43.2404 184.816 38.6698C185.119 36.6347 185.048 35.1394 184.599 34.151C184.15 33.1626 183.253 32.7168 182.343 32.6358C178.416 32.2863 170.458 35.8509 155.809 40.9326C144.911 44.7134 139.154 54.1468 135.685 59.2375C134.161 61.802 133.114 64.3282 132.575 66.5955C132.036 68.8628 132.036 70.7946 132.036 71.8843" stroke="#FF3F6B" stroke-width="2" stroke-linecap="round"/>
</svg>
